<?xml version="1.0" standalone="no"?><!DOCTYPE svg PUBLIC "-//W3C//DTD SVG 1.1//EN" "http://www.w3.org/Graphics/SVG/1.1/DTD/svg11.dtd"><svg t="1573626295041" class="icon" viewBox="0 0 1024 1024" version="1.1" xmlns="http://www.w3.org/2000/svg" p-id="5307" xmlns:xlink="http://www.w3.org/1999/xlink" width="200" height="200"><defs><style type="text/css"></style></defs><path d="M802.4064 476.3648c-11.4688-1.4336-23.1424-1.8432-33.9968-1.8432H407.3472c-71.2704 0-144.9984 0-217.7024 0.8192-2.8672 0-6.5536-0.4096-10.0352-0.4096-13.312-1.2288-28.672-1.8432-38.5024 7.9872-5.3248 5.3248-7.9872 12.9024-7.9872 22.3232 0 9.4208 2.8672 16.9984 7.9872 22.3232 6.9632 6.7584 16.384 8.3968 25.8048 8.3968 4.096 0 8.8064-0.4096 12.4928-0.8192 3.4816-0.4096 6.9632-0.4096 9.8304-0.4096 164.6592 0.8192 332.1856 0.4096 493.9776 0.4096h91.5456c7.7824 0 17.408-0.4096 27.2384-1.4336 23.7568-3.4816 27.2384-19.2512 27.2384-28.4672 0.8192-7.5776-2.048-25.3952-26.8288-28.8768zM669.9008 766.7712c-2.6624 0-5.12 0.4096-7.168 0.4096-61.44-0.8192-123.904-0.4096-184.5248-0.4096h-120.0128c-59.392 0-121.0368 0-181.6576 0.4096-2.048 0-4.5056 0-7.168-0.4096-10.0352-0.8192-22.3232-1.4336-30.1056 8.3968-4.3008 5.3248-6.3488 12.9024-6.3488 21.9136 0 9.4208 2.2528 16.5888 6.3488 21.9136 5.7344 7.168 13.7216 8.3968 21.504 8.3968 3.072 0 5.9392-0.4096 8.8064-0.4096 2.6624 0 5.12-0.4096 7.168-0.4096 161.1776 0.8192 324.608 0.8192 485.7856 0 2.048 0 4.5056 0 7.168 0.4096 10.0352 0.8192 22.7328 1.4336 30.3104-8.3968 4.3008-5.3248 6.3488-12.9024 6.3488-22.3232 0-9.4208-2.2528-16.5888-6.3488-21.9136-7.5776-9.216-20.0704-8.3968-30.1056-7.5776zM171.2128 257.6384c3.072 0 6.144 0 9.0112-0.4096 2.6624 0 5.3248-0.4096 7.5776 0 220.5696 0.4096 438.8864 0.4096 648.8064 0h7.168c12.9024 0.4096 28.8768 1.2288 39.1168-8.8064 5.3248-5.3248 7.9872-12.4928 7.9872-21.9136 0-8.8064-3.072-15.9744-8.3968-21.2992-10.24-9.4208-26.2144-9.0112-38.7072-8.3968-2.6624 0-5.3248 0.4096-7.9872 0-81.92-0.2048-165.2736-0.2048-246.1696-0.2048h-160.3584c-79.2576 0-161.3824 0-242.2784 0.4096h-7.5776c-12.9024-0.4096-28.8768-0.8192-38.7072 8.8064-5.3248 5.7344-7.9872 13.312-7.9872 22.3232 0 8.8064 3.072 15.9744 8.3968 21.2992 8.192 7.168 19.6608 8.192 30.1056 8.192z" fill="#DCDFE6" p-id="5308"></path></svg>